<?xml version="1.0" encoding="iso-8859-1"?>
<!-- Generator: Adobe Illustrator 19.0.0, SVG Export Plug-In . SVG Version: 6.00 Build 0)  -->
<svg version="1.1" id="Capa_1" xmlns="http://www.w3.org/2000/svg" xmlns:xlink="http://www.w3.org/1999/xlink" x="0px" y="0px"
	 viewBox="0 0 511.999 511.999" style="enable-background:new 0 0 511.999 511.999;" xml:space="preserve">
<g>
	<g>
		<path d="M313.762,99.728L267.706,53.67c-4.465-4.465-10.401-6.924-16.716-6.924H55.919c-4.142,0-7.5,3.358-7.5,7.5
			c0,4.142,3.358,7.5,7.5,7.5h195.07c2.308,0,4.478,0.898,6.11,2.53l46.057,46.058c0.042,0.042,0.167,0.167,0.167,0.403
			s-0.125,0.362-0.167,0.403l-46.057,46.057c-1.632,1.632-3.802,2.531-6.11,2.531H15.57c-0.314,0-0.57-0.256-0.57-0.57V62.316
			c0-0.314,0.255-0.57,0.57-0.57h8.07c4.142,0,7.5-3.358,7.5-7.5c0-4.142-3.358-7.5-7.5-7.5h-8.07C6.984,46.746,0,53.731,0,62.316
			v96.842c0,8.585,6.984,15.57,15.57,15.57h235.419c6.314,0,12.251-2.459,16.716-6.924l46.057-46.057
			C319.833,115.677,319.833,105.799,313.762,99.728z"/>
	</g>
</g>
<g>
	<g>
		<path d="M410.606,244.991l-46.058-46.058c-4.465-4.465-10.401-6.924-16.716-6.924H55.921c-4.142,0-7.5,3.358-7.5,7.5
			s3.358,7.5,7.5,7.5h291.91c2.308,0,4.478,0.898,6.109,2.53l46.057,46.057c0.223,0.223,0.223,0.585,0,0.807l-46.058,46.058
			c-1.632,1.632-3.801,2.53-6.109,2.53H15.57c-0.314,0-0.57-0.256-0.57-0.57v-96.842c0-0.314,0.256-0.57,0.57-0.57h8.069
			c4.142,0,7.5-3.358,7.5-7.5c0-4.142-3.358-7.5-7.5-7.5H15.57c-8.585,0-15.57,6.984-15.57,15.57v96.842
			c0,8.586,6.984,15.571,15.57,15.571h332.262c6.314,0,12.251-2.459,16.716-6.924l46.058-46.058
			C416.676,260.94,416.676,251.062,410.606,244.991z"/>
	</g>
</g>
<g>
	<g>
		<path d="M507.446,390.253l-46.058-46.057c-4.465-4.465-10.401-6.924-16.716-6.924H55.92c-4.142,0-7.5,3.358-7.5,7.5
			s3.358,7.5,7.5,7.5h388.753c2.308,0,4.478,0.899,6.109,2.531l46.058,46.057c0.042,0.042,0.167,0.167,0.167,0.403
			s-0.125,0.362-0.167,0.403l-46.058,46.058c-1.632,1.632-3.801,2.53-6.109,2.53H15.57c-0.314,0-0.57-0.256-0.57-0.57v-96.842
			c0-0.314,0.256-0.57,0.57-0.57h8.071c4.142,0,7.5-3.358,7.5-7.5s-3.358-7.5-7.5-7.5H15.57c-8.585,0-15.57,6.984-15.57,15.57
			v96.842c0,8.585,6.985,15.57,15.57,15.57h429.103c6.314,0,12.251-2.459,16.716-6.924l46.058-46.058
			C513.517,406.202,513.517,396.324,507.446,390.253z"/>
	</g>
</g>
<g>
	<g>
		<path d="M248.242,131.593l-24.21-48.421c-1.27-2.541-3.867-4.146-6.708-4.146h-8.07c-2.841,0-5.438,1.605-6.708,4.146
			l-24.21,48.421c-1.853,3.705-0.351,8.21,3.354,10.062c3.704,1.854,8.21,0.352,10.062-3.354l5.997-11.994h31.08l5.997,11.994
			c1.314,2.628,3.962,4.148,6.714,4.147c1.127,0,2.271-0.255,3.348-0.793C248.593,139.803,250.095,135.298,248.242,131.593z
			 M205.249,111.308l8.04-16.08l8.04,16.08H205.249z"/>
	</g>
</g>
<g>
	<g>
		<path d="M336.339,251.314c0.94-2.291,1.468-4.793,1.468-7.419c0-10.81-8.795-19.605-19.605-19.605h-28.245
			c-4.142,0-7.5,3.358-7.5,7.5V256v24.21c0,4.142,3.358,7.5,7.5,7.5h36.315c10.81,0,19.605-8.795,19.605-19.605
			C345.877,260.978,342.042,254.746,336.339,251.314z M297.456,239.289h20.745c2.539,0,4.605,2.066,4.605,4.605
			c0,2.539-2.066,4.605-4.605,4.605h-20.745V239.289z M326.271,272.71h-28.815v-9.21h28.815c2.539,0,4.605,2.066,4.605,4.605
			C330.877,270.644,328.81,272.71,326.271,272.71z"/>
	</g>
</g>
<g>
	<g>
		<path d="M442.025,411.831c-3.077-2.771-7.819-2.525-10.592,0.552c-3.248,3.604-7.635,5.59-12.355,5.59h-8.07
			c-9.214,0-16.71-7.496-16.71-16.71s7.496-16.71,16.71-16.71h8.07c4.72,0,9.107,1.985,12.355,5.59
			c2.772,3.077,7.515,3.323,10.592,0.552c3.078-2.772,3.325-7.515,0.552-10.592c-6.041-6.705-14.605-10.55-23.5-10.55h-8.07
			c-17.485,0-31.71,14.225-31.71,31.71s14.225,31.71,31.71,31.71h8.07c8.894,0,17.459-3.845,23.5-10.55
			C445.349,419.346,445.102,414.603,442.025,411.831z"/>
	</g>
</g>
<g>
</g>
<g>
</g>
<g>
</g>
<g>
</g>
<g>
</g>
<g>
</g>
<g>
</g>
<g>
</g>
<g>
</g>
<g>
</g>
<g>
</g>
<g>
</g>
<g>
</g>
<g>
</g>
<g>
</g>
</svg>
