<?xml version="1.0" encoding="iso-8859-1"?>
<!-- Generator: Adobe Illustrator 19.0.0, SVG Export Plug-In . SVG Version: 6.00 Build 0)  -->
<svg version="1.1" id="Layer_1" xmlns="http://www.w3.org/2000/svg" xmlns:xlink="http://www.w3.org/1999/xlink" x="0px" y="0px"
	 viewBox="0 0 512 512" style="enable-background:new 0 0 512 512;" xml:space="preserve">
<g>
	<g>
		<g>
			<path d="M466.208,67.125l-42.667-42.667c-4.167-4.167-10.917-4.167-15.083,0c-4.167,4.167-4.167,10.917,0,15.083l35.125,35.125
				l-35.125,35.125c-2,2-3.125,4.708-3.125,7.542v32C405.333,172.865,424.469,192,448,192v181.333
				c0,5.885-4.781,10.667-10.667,10.667c-5.885,0-10.667-4.781-10.667-10.667V352c0-17.646-14.354-32-32-32H384V42.667
				C384,19.135,364.865,0,341.333,0H128c-23.531,0-42.667,19.135-42.667,42.667v384c-23.531,0-42.667,19.135-42.667,42.667v32
				c0,5.896,4.771,10.667,10.667,10.667H416c5.896,0,10.667-4.771,10.667-10.667v-32c0-23.531-19.135-42.667-42.667-42.667v-85.333
				h10.667c5.885,0,10.667,4.781,10.667,10.667v21.333c0,17.646,14.354,32,32,32c17.646,0,32-14.354,32-32V74.667
				C469.333,71.833,468.208,69.125,466.208,67.125z M106.667,42.667c0-11.76,9.573-21.333,21.333-21.333h213.333
				c11.76,0,21.333,9.573,21.333,21.333v384h-256V42.667z M405.333,469.333v21.333H64v-21.333C64,457.573,73.573,448,85.333,448H384
				C395.76,448,405.333,457.573,405.333,469.333z M448,170.667c-11.76,0-21.333-9.573-21.333-21.333V121.75L448,100.417V170.667z"/>
			<path d="M330.667,42.667h-192c-5.896,0-10.667,4.771-10.667,10.667v128.198c0,5.896,4.771,10.667,10.667,10.667h192
				c5.896,0,10.667-4.771,10.667-10.667V53.333C341.333,47.438,336.563,42.667,330.667,42.667z M320,170.865H149.333V64H320V170.865
				z"/>
		</g>
	</g>
</g>
<g>
</g>
<g>
</g>
<g>
</g>
<g>
</g>
<g>
</g>
<g>
</g>
<g>
</g>
<g>
</g>
<g>
</g>
<g>
</g>
<g>
</g>
<g>
</g>
<g>
</g>
<g>
</g>
<g>
</g>
</svg>
